<svg width="54" height="54" viewBox="0 0 54 54" fill="none" xmlns="http://www.w3.org/2000/svg">
<path d="M6 24.3L12 18.3L28.5 34.8L39 24.3L48 33.3V6H6V24.3ZM6 32.787V48H15.3L24.258 39.045L12 26.787L6 32.787ZM23.787 48H48V41.787L39 32.787L23.787 48ZM3 0H51C51.7957 0 52.5587 0.31607 53.1213 0.87868C53.6839 1.44129 54 2.20435 54 3V51C54 51.7957 53.6839 52.5587 53.1213 53.1213C52.5587 53.6839 51.7957 54 51 54H3C2.20435 54 1.44129 53.6839 0.87868 53.1213C0.31607 52.5587 0 51.7957 0 51V3C0 2.20435 0.31607 1.44129 0.87868 0.87868C1.44129 0.31607 2.20435 0 3 0ZM37.5 21C36.3065 21 35.1619 20.5259 34.318 19.682C33.4741 18.8381 33 17.6935 33 16.5C33 15.3065 33.4741 14.1619 34.318 13.318C35.1619 12.4741 36.3065 12 37.5 12C38.6935 12 39.8381 12.4741 40.682 13.318C41.5259 14.1619 42 15.3065 42 16.5C42 17.6935 41.5259 18.8381 40.682 19.682C39.8381 20.5259 38.6935 21 37.5 21Z" fill="#B8C0CA"/>
</svg>
